<svg width="20" height="20" viewBox="0 0 20 20" fill="none"
    xmlns="http://www.w3.org/2000/svg">
    <path d="M10.7335 1.87967C10.5608 1.86461 10.3869 1.88562 10.2228 1.94136C10.0587 1.99711 9.90801 2.08637 9.78025 2.20347C9.65249 2.32058 9.55048 2.46297 9.4807 2.62161C9.41091 2.78025 9.37488 2.95167 9.37489 3.12498V6.30232C9.37273 6.59715 9.47577 6.88309 9.6655 7.10876C9.85524 7.33444 10.1192 7.48506 10.41 7.53357C10.8747 7.61153 11.3079 7.8192 11.6596 8.13266C12.0114 8.44611 12.2674 8.85258 12.3982 9.30522C12.5289 9.75786 12.5291 10.2382 12.3987 10.691C12.2684 11.1437 12.0127 11.5504 11.6612 11.8642C11.3097 12.1779 10.8767 12.386 10.4121 12.4643C9.94751 12.5427 9.47023 12.4881 9.03529 12.307C8.60035 12.1259 8.22544 11.8255 7.95378 11.4406C7.68213 11.0556 7.52478 10.6017 7.49989 10.1312C7.46785 9.48904 7.5991 8.95935 7.89051 8.54842C8.06178 8.30951 8.14253 8.0175 8.11834 7.72455C8.09416 7.43159 7.96661 7.15678 7.75848 6.9492L5.60067 4.7406C5.47767 4.6176 5.33036 4.52162 5.16814 4.45881C5.00593 4.396 4.8324 4.36773 4.65864 4.37582C4.48488 4.38391 4.31472 4.42817 4.15905 4.50578C4.00337 4.5834 3.86561 4.69264 3.75457 4.82654C2.45221 6.38747 1.78493 8.38132 1.88538 10.4117C1.98584 12.4421 2.84668 14.3604 4.29676 15.7851C5.81301 17.2894 7.86402 18.1309 9.99989 18.125H10.1163C12.2292 18.089 14.2455 17.2336 15.7397 15.7393C17.2339 14.2449 18.0891 12.2285 18.1249 10.1156C18.1835 5.87341 14.9366 2.25623 10.7335 1.87967ZM4.71239 5.62029L6.86942 7.82263V7.82732C6.54923 8.2868 6.34817 8.8186 6.28426 9.37498H3.15301C3.27818 7.99379 3.82224 6.68378 4.71239 5.62029ZM3.15379 10.625H6.30223C6.43184 11.3929 6.79733 12.1014 7.34794 12.6522C7.89856 13.2029 8.60699 13.5686 9.37489 13.6984V16.8469C7.77414 16.7006 6.27524 15.9981 5.1387 14.8614C4.00215 13.7247 3.29983 12.2257 3.15379 10.625ZM14.8546 14.8547C13.7225 15.9946 12.2249 16.6992 10.6249 16.8445V13.6984C11.3492 13.5779 12.0215 13.2454 12.5569 12.7429C13.0688 12.266 13.4371 11.6555 13.6201 10.9802C13.8031 10.305 13.7936 9.59198 13.5926 8.92187C13.3916 8.25175 13.0071 7.65122 12.4827 7.18817C11.9583 6.72511 11.3147 6.418 10.6249 6.30154V3.12498C14.1811 3.44373 16.9272 6.50623 16.8749 10.0976C16.8503 11.8867 16.1249 13.5947 14.8546 14.8547Z" fill="currentColor"/>
</svg>
