<svg width="17" height="17" viewBox="0 0 17 17" fill="none"
    xmlns="http://www.w3.org/2000/svg">
    <path d="M14.1294 3.06831H11.6294V2.56831C11.6294 2.17048 11.4714 1.78895 11.1901 1.50765C10.9088 1.22634 10.5272 1.06831 10.1294 1.06831H7.12939C6.73157 1.06831 6.35004 1.22634 6.06873 1.50765C5.78743 1.78895 5.62939 2.17048 5.62939 2.56831V3.06831H3.12939C2.99679 3.06831 2.86961 3.12098 2.77584 3.21475C2.68207 3.30852 2.62939 3.4357 2.62939 3.56831C2.62939 3.70091 2.68207 3.82809 2.77584 3.92186C2.86961 4.01563 2.99679 4.06831 3.12939 4.06831H3.62939V13.0683C3.62939 13.3335 3.73475 13.5879 3.92229 13.7754C4.10982 13.9629 4.36418 14.0683 4.62939 14.0683H12.6294C12.8946 14.0683 13.149 13.9629 13.3365 13.7754C13.524 13.5879 13.6294 13.3335 13.6294 13.0683V4.06831H14.1294C14.262 4.06831 14.3892 4.01563 14.4829 3.92186C14.5767 3.82809 14.6294 3.70091 14.6294 3.56831C14.6294 3.4357 14.5767 3.30852 14.4829 3.21475C14.3892 3.12098 14.262 3.06831 14.1294 3.06831ZM6.62939 2.56831C6.62939 2.4357 6.68207 2.30852 6.77584 2.21475C6.86961 2.12098 6.99679 2.06831 7.12939 2.06831H10.1294C10.262 2.06831 10.3892 2.12098 10.4829 2.21475C10.5767 2.30852 10.6294 2.4357 10.6294 2.56831V3.06831H6.62939V2.56831ZM12.6294 13.0683H4.62939V4.06831H12.6294V13.0683ZM7.62939 6.56831V10.5683C7.62939 10.7009 7.57672 10.8281 7.48295 10.9219C7.38918 11.0156 7.262 11.0683 7.12939 11.0683C6.99679 11.0683 6.86961 11.0156 6.77584 10.9219C6.68207 10.8281 6.62939 10.7009 6.62939 10.5683V6.56831C6.62939 6.4357 6.68207 6.30852 6.77584 6.21475C6.86961 6.12098 6.99679 6.06831 7.12939 6.06831C7.262 6.06831 7.38918 6.12098 7.48295 6.21475C7.57672 6.30852 7.62939 6.4357 7.62939 6.56831ZM10.6294 6.56831V10.5683C10.6294 10.7009 10.5767 10.8281 10.4829 10.9219C10.3892 11.0156 10.262 11.0683 10.1294 11.0683C9.99679 11.0683 9.86961 11.0156 9.77584 10.9219C9.68207 10.8281 9.62939 10.7009 9.62939 10.5683V6.56831C9.62939 6.4357 9.68207 6.30852 9.77584 6.21475C9.86961 6.12098 9.99679 6.06831 10.1294 6.06831C10.262 6.06831 10.3892 6.12098 10.4829 6.21475C10.5767 6.30852 10.6294 6.4357 10.6294 6.56831Z" fill="#637381"/>
</svg>
